HIERARCHY
ROOT Hips
{
	OFFSET 56.285702 -12.288815 93.684097
	CHANNELS 6 Xposition Yposition Zposition Xrotation Yrotation Zrotation
	JOINT spine
	{
		OFFSET 0.000000 -0.429886 7.475601
		CHANNELS 3 Xrotation Yrotation Zrotation
		JOINT spine1
		{
			OFFSET 0.000000 -0.000002 9.923012
			CHANNELS 3 Xrotation Yrotation Zrotation
			JOINT spine2
			{
				OFFSET 0.000000 -0.000002 9.508041
				CHANNELS 3 Xrotation Yrotation Zrotation
				JOINT Neck
				{
					OFFSET 0.000000 -1.163844 24.411095
					CHANNELS 3 Xrotation Yrotation Zrotation
					JOINT Head
					{
						OFFSET 0.000000 -0.000001 7.375229
						CHANNELS 3 Xrotation Yrotation Zrotation
						End Site
						{
							OFFSET 0.000000 5.887407 17.852203
						}
					}
				}
				JOINT RightShoulder
				{
					OFFSET -4.003559 0.557467 10.267906
					CHANNELS 3 Xrotation Yrotation Zrotation
					JOINT RightArm
					{
						OFFSET 0.000000 -0.000003 13.467300
						CHANNELS 3 Xrotation Yrotation Zrotation
						JOINT RightArmRoll
						{
							OFFSET 0.000000 -0.000001 6.798584
							CHANNELS 3 Xrotation Yrotation Zrotation
							JOINT RightForeArm
							{
								OFFSET 0.000000 -0.000003 19.801804
								CHANNELS 3 Xrotation Yrotation Zrotation
								JOINT RightForeArmRoll
								{
									OFFSET 0.000000 -0.000002 7.629044
									CHANNELS 3 Xrotation Yrotation Zrotation
									JOINT RightHand
									{
										OFFSET 0.000000 -0.000002 15.309799
										CHANNELS 3 Xrotation Yrotation Zrotation
										End Site
										{
											OFFSET 0.000000 0.000000 0.100006
										}
									}
								}
							}
						}
					}
				}
				JOINT LeftShoulder
				{
					OFFSET 4.003559 0.557467 10.267906
					CHANNELS 3 Xrotation Yrotation Zrotation
					JOINT LeftArm
					{
						OFFSET 0.000000 -0.000003 13.467300
						CHANNELS 3 Xrotation Yrotation Zrotation
						JOINT LeftArmRoll
						{
							OFFSET 0.000000 -0.000001 6.798584
							CHANNELS 3 Xrotation Yrotation Zrotation
							JOINT LeftForeArm
							{
								OFFSET 0.000000 -0.000003 19.801804
								CHANNELS 3 Xrotation Yrotation Zrotation
								JOINT LeftForeArmRoll
								{
									OFFSET 0.000000 -0.000002 7.629044
									CHANNELS 3 Xrotation Yrotation Zrotation
									JOINT LeftHand
									{
										OFFSET 0.000000 -0.000002 15.309799
										CHANNELS 3 Xrotation Yrotation Zrotation
										End Site
										{
											OFFSET 0.000000 0.000000 0.100006
										}
									}
								}
							}
						}
					}
				}
			}
		}
	}
	JOINT RightUpLeg
	{
		OFFSET -6.626091 1.019270 -1.215050
		CHANNELS 3 Xrotation Yrotation Zrotation
		JOINT RightUpLegRoll
		{
			OFFSET 0.000000 -0.000003 17.951698
			CHANNELS 3 Xrotation Yrotation Zrotation
			JOINT RightLeg
			{
				OFFSET 0.000000 0.000004 -22.230400
				CHANNELS 3 Xrotation Yrotation Zrotation
				JOINT RightLegRoll
				{
					OFFSET 0.000000 -0.000004 22.303200
					CHANNELS 3 Xrotation Yrotation Zrotation
					JOINT RightFoot
					{
						OFFSET 0.000000 -0.000003 18.563599
						CHANNELS 3 Xrotation Yrotation Zrotation
						JOINT RightToeBase
						{
							OFFSET 0.000000 -0.000003 15.518295
							CHANNELS 3 Xrotation Yrotation Zrotation
							End Site
							{
								OFFSET 0.006577 0.866262 7.515381
							}
						}
					}
				}
			}
		}
	}
	JOINT LeftUpLeg
	{
		OFFSET 6.626091 1.019270 -1.215050
		CHANNELS 3 Xrotation Yrotation Zrotation
		JOINT LeftUpLegRoll
		{
			OFFSET 0.000000 -0.000003 17.951797
			CHANNELS 3 Xrotation Yrotation Zrotation
			JOINT LeftLeg
			{
				OFFSET 0.000000 -0.000004 22.230309
				CHANNELS 3 Xrotation Yrotation Zrotation
				JOINT LeftLegRoll
				{
					OFFSET 0.000000 -0.000004 22.509308
					CHANNELS 3 Xrotation Yrotation Zrotation
					JOINT LeftFoot
					{
						OFFSET 0.000000 -0.000003 18.357498
						CHANNELS 3 Xrotation Yrotation Zrotation
						JOINT LeftToeBase
						{
							OFFSET 0.000000 -0.000002 15.518295
							CHANNELS 3 Xrotation Yrotation Zrotation
							End Site
							{
								OFFSET -0.029476 0.866261 7.515396
							}
						}
					}
				}
			}
		}
	}
}
MOTION
Frames: 5
Frame Time: 0.041667
55.131195 -11.513313 93.513794 -3.628439 1.403093 -3.028225 -1.190203 -0.289249 0.297960 1.623924 -0.581628 0.582654 3.268995 -0.574490 0.589559 7.226586 7.451284 -2.610182 2.100050 -8.548441 -2.307082 -0.059802 -73.140193 -1.745340 -60.820321 -102.626352 -37.049934 -0.000000 0.000034 -0.000007 0.043495 -4.889569 -1.237234 -0.000001 -0.000008 -3.043600 -5.000208 -7.999413 0.000074 -11.294399 72.009332 13.956785 -45.894981 103.320681 28.745421 0.000003 0.000010 0.000000 0.844032 8.042001 0.626880 0.000001 -0.000008 3.008912 -5.000223 7.998973 -0.000118 0.124443 177.987995 -2.717429 -179.999991 0.000005 -1.016996 173.398381 -0.877148 -0.437520 -0.000003 -0.000003 0.019846 68.101890 6.881495 2.225720 25.456863 -7.355621 -0.000003 -0.978280 179.213113 3.449416 0.000010 -0.000004 -1.081890 -9.371229 1.592273 0.407901 -0.000001 -0.000002 -0.169434 70.534189 -6.842085 -2.158940 25.456957 7.355615 0.000000 
55.138901 -11.533718 93.512802 -3.643179 1.393659 -3.017943 -1.187634 -0.290567 0.299639 1.629075 -0.584273 0.586342 3.274156 -0.577099 0.593281 7.255847 7.486238 -2.614188 2.084223 -8.572210 -2.310902 -0.064116 -73.085483 -1.744109 -60.834610 -102.670188 -37.075882 -0.000000 0.000034 -0.000007 0.043493 -4.890029 -1.238026 -0.000002 -0.000008 -3.043601 -5.000207 -7.999412 0.000073 -11.271115 72.039050 13.932563 -46.295524 103.358295 29.126474 0.000002 0.000010 -0.000001 0.797112 8.015207 0.630033 -0.000001 -0.000008 3.008913 -5.000224 7.998971 -0.000119 0.127142 178.001000 -2.709045 -179.999991 0.000005 -1.016996 173.378806 -0.875118 -0.439582 -0.000003 -0.000003 0.020535 68.103051 6.881516 2.225650 25.456868 -7.355622 -0.000003 -0.957612 179.226104 3.456235 0.000010 -0.000004 -1.081940 -9.354999 1.591262 0.407116 -0.000002 -0.000002 -0.169448 70.531730 -6.842055 -2.158087 25.456962 7.355616 0.000000 
55.143902 -11.523715 93.505798 -3.658750 1.384264 -3.008223 -1.184916 -0.291888 0.301407 1.634546 -0.586926 0.590211 3.279618 -0.579714 0.597182 7.285321 7.521018 -2.618237 2.068018 -8.595672 -2.314772 -0.069218 -73.030985 -1.743761 -60.852805 -102.714325 -37.106201 0.000001 0.000035 -0.000005 0.043493 -4.890818 -1.238793 -0.000001 -0.000008 -3.043602 -5.000207 -7.999412 0.000072 -11.246565 72.069028 13.906966 -46.691689 103.395909 29.502688 0.000002 0.000011 -0.000001 0.748791 7.988230 0.633105 0.000001 -0.000008 3.008907 -5.000223 7.998971 -0.000118 0.130918 178.014018 -2.700367 -179.999991 0.000005 -1.016996 173.359572 -0.874094 -0.441769 -0.000003 -0.000003 0.021237 68.103987 6.881521 2.225794 25.456863 -7.355622 -0.000003 -0.935661 179.239108 3.463057 0.000010 -0.000004 -1.082010 -9.338387 1.590184 0.406291 -0.000001 -0.000002 -0.169469 70.529169 -6.842019 -2.157238 25.456957 7.355614 0.000000 
55.151100 -11.500114 93.504402 -3.674878 1.374888 -2.998894 -1.182076 -0.293212 0.303238 1.640237 -0.589586 0.594205 3.285310 -0.582334 0.601209 7.314954 7.555667 -2.622346 2.051560 -8.618914 -2.318693 -0.074856 -72.976596 -1.744023 -60.873562 -102.758932 -37.139502 -0.000000 0.000034 -0.000008 0.043494 -4.891849 -1.239540 -0.000001 -0.000008 -3.043602 -5.000208 -7.999412 0.000073 -11.221259 72.099456 13.880549 -47.084158 103.433673 29.874930 0.000003 0.000010 -0.000001 0.699487 7.961106 0.636096 0.000001 -0.000008 3.008909 -5.000223 7.998970 -0.000117 0.135453 178.026996 -2.691463 -179.999991 0.000005 -1.016997 173.340557 -0.873069 -0.443938 -0.000003 -0.000003 0.021948 68.104943 6.881524 2.225835 25.456861 -7.355622 -0.000003 -0.912810 179.252099 3.469886 0.000010 -0.000004 -1.082090 -9.321516 1.589037 0.405437 -0.000001 -0.000002 -0.169495 70.526703 -6.841954 -2.156279 25.456957 7.355616 0.000000 
55.155899 -11.502214 93.515297 -3.691338 1.365522 -2.989792 -1.179187 -0.294540 0.305105 1.646048 -0.592247 0.598271 3.291121 -0.584956 0.605308 7.344674 7.590238 -2.626494 2.034942 -8.642039 -2.322653 -0.080782 -72.922180 -1.744608 -60.895064 -102.803657 -37.173711 -0.000001 0.000035 -0.000008 0.043495 -4.893019 -1.240291 -0.000000 -0.000008 -3.043600 -5.000207 -7.999413 0.000073 -11.195327 72.129912 13.853448 -47.473763 103.471752 30.244187 0.000001 0.000011 -0.000001 0.649625 7.933908 0.639019 -0.000000 -0.000008 3.008909 -5.000225 7.998971 -0.000119 0.140418 178.040014 -2.682442 -179.999991 0.000005 -1.016996 173.321706 -0.872045 -0.446117 -0.000003 -0.000003 0.022665 68.105776 6.881522 2.225981 25.456861 -7.355620 -0.000004 -0.889441 179.266101 3.476703 0.000010 -0.000004 -1.082180 -9.304494 1.587851 0.404565 -0.000002 -0.000002 -0.169524 70.524142 -6.841919 -2.155430 25.456957 7.355615 0.000000 
